<?xml version="1.0" encoding="UTF-8" standalone="no"?>
<!DOCTYPE svg PUBLIC "-//W3C//DTD SVG 1.1//EN"
 "http://www.w3.org/Graphics/SVG/1.1/DTD/svg11.dtd">
<!-- Generated by graphviz version 2.26.3 (20100126.1600)
 -->
<!-- Title: controllers_diagram Pages: 1 -->
<svg width="843pt" height="752pt"
 viewBox="0.00 0.00 843.00 751.67" xmlns="http://www.w3.org/2000/svg" xmlns:xlink="http://www.w3.org/1999/xlink">
<g id="graph1" class="graph" transform="scale(1 1) rotate(0) translate(4 747.67)">
<title>controllers_diagram</title>
<polygon fill="white" stroke="white" points="-4,5 -4,-747.67 840,-747.67 840,5 -4,5"/>
<!-- _diagram_info -->
<g id="node1" class="node"><title>_diagram_info</title>
<text text-anchor="start" x="592" y="-555.3" font-family="Times Roman,serif" font-size="13.00">Controllers diagram</text>
<text text-anchor="start" x="592" y="-538.3" font-family="Times Roman,serif" font-size="13.00">Date: Dec 08 2013 &#45; 17:57</text>
<text text-anchor="start" x="592" y="-521.3" font-family="Times Roman,serif" font-size="13.00">Migration version: 20131125002834</text>
<text text-anchor="start" x="592" y="-504.3" font-family="Times Roman,serif" font-size="13.00">Generated by RailRoady 1.1.1</text>
<text text-anchor="start" x="592" y="-487.3" font-family="Times Roman,serif" font-size="13.00">http://railroady.prestonlee.com</text>
</g>
<!-- IdentitiesController -->
<g id="node2" class="node"><title>IdentitiesController</title>
<polyline fill="none" stroke="black" points="235.496,-16.003 361.496,-16.003 "/>
<path fill="none" stroke="black" d="M361.496,-16.003C367.496,-16.003 373.496,-22.003 373.496,-28.003"/>
<polyline fill="none" stroke="black" points="373.496,-28.003 373.496,-142.003 "/>
<path fill="none" stroke="black" d="M373.496,-142.003C373.496,-148.003 367.496,-154.003 361.496,-154.003"/>
<polyline fill="none" stroke="black" points="361.496,-154.003 235.496,-154.003 "/>
<path fill="none" stroke="black" d="M235.496,-154.003C229.496,-154.003 223.496,-148.003 223.496,-142.003"/>
<polyline fill="none" stroke="black" points="223.496,-142.003 223.496,-28.003 "/>
<path fill="none" stroke="black" d="M223.496,-28.003C223.496,-22.003 229.496,-16.003 235.496,-16.003"/>
<text text-anchor="middle" x="298.496" y="-137.403" font-family="Times Roman,serif" font-size="14.00">IdentitiesController</text>
<polyline fill="none" stroke="black" points="223.496,-128.003 373.496,-128.003 "/>
<text text-anchor="start" x="231.496" y="-111.403" font-family="Times Roman,serif" font-size="14.00">index</text>
<text text-anchor="start" x="231.496" y="-93.403" font-family="Times Roman,serif" font-size="14.00">new</text>
<text text-anchor="start" x="231.496" y="-75.403" font-family="Times Roman,serif" font-size="14.00">show</text>
<polyline fill="none" stroke="black" points="223.496,-66.003 373.496,-66.003 "/>
<polyline fill="none" stroke="black" points="223.496,-42.003 373.496,-42.003 "/>
<text text-anchor="start" x="231.496" y="-25.403" font-family="Times Roman,serif" font-size="14.00">_layout</text>
</g>
<!-- UsersController -->
<g id="node3" class="node"><title>UsersController</title>
<polyline fill="none" stroke="black" points="404.548,-510.952 504.548,-510.952 "/>
<path fill="none" stroke="black" d="M504.548,-510.952C510.548,-510.952 516.548,-516.952 516.548,-522.952"/>
<polyline fill="none" stroke="black" points="516.548,-522.952 516.548,-654.952 "/>
<path fill="none" stroke="black" d="M516.548,-654.952C516.548,-660.952 510.548,-666.952 504.548,-666.952"/>
<polyline fill="none" stroke="black" points="504.548,-666.952 404.548,-666.952 "/>
<path fill="none" stroke="black" d="M404.548,-666.952C398.548,-666.952 392.548,-660.952 392.548,-654.952"/>
<polyline fill="none" stroke="black" points="392.548,-654.952 392.548,-522.952 "/>
<path fill="none" stroke="black" d="M392.548,-522.952C392.548,-516.952 398.548,-510.952 404.548,-510.952"/>
<text text-anchor="middle" x="454.548" y="-650.352" font-family="Times Roman,serif" font-size="14.00">UsersController</text>
<polyline fill="none" stroke="black" points="392.548,-640.952 516.548,-640.952 "/>
<text text-anchor="start" x="400.548" y="-624.352" font-family="Times Roman,serif" font-size="14.00">edit</text>
<text text-anchor="start" x="400.548" y="-606.352" font-family="Times Roman,serif" font-size="14.00">new</text>
<text text-anchor="start" x="400.548" y="-588.352" font-family="Times Roman,serif" font-size="14.00">show</text>
<text text-anchor="start" x="400.548" y="-570.352" font-family="Times Roman,serif" font-size="14.00">update</text>
<polyline fill="none" stroke="black" points="392.548,-560.952 516.548,-560.952 "/>
<polyline fill="none" stroke="black" points="392.548,-536.952 516.548,-536.952 "/>
<text text-anchor="start" x="400.548" y="-520.352" font-family="Times Roman,serif" font-size="14.00">_layout</text>
</g>
<!-- SessionsController -->
<g id="node4" class="node"><title>SessionsController</title>
<polyline fill="none" stroke="black" points="24.544,-31.1512 144.544,-31.1512 "/>
<path fill="none" stroke="black" d="M144.544,-31.1512C150.544,-31.1512 156.544,-37.1512 156.544,-43.1512"/>
<polyline fill="none" stroke="black" points="156.544,-43.1512 156.544,-175.151 "/>
<path fill="none" stroke="black" d="M156.544,-175.151C156.544,-181.151 150.544,-187.151 144.544,-187.151"/>
<polyline fill="none" stroke="black" points="144.544,-187.151 24.544,-187.151 "/>
<path fill="none" stroke="black" d="M24.544,-187.151C18.544,-187.151 12.544,-181.151 12.544,-175.151"/>
<polyline fill="none" stroke="black" points="12.544,-175.151 12.544,-43.1512 "/>
<path fill="none" stroke="black" d="M12.544,-43.1512C12.544,-37.1512 18.544,-31.1512 24.544,-31.1512"/>
<text text-anchor="middle" x="84.544" y="-170.551" font-family="Times Roman,serif" font-size="14.00">SessionsController</text>
<polyline fill="none" stroke="black" points="12.544,-161.151 156.544,-161.151 "/>
<text text-anchor="start" x="20.544" y="-144.551" font-family="Times Roman,serif" font-size="14.00">create</text>
<text text-anchor="start" x="20.544" y="-126.551" font-family="Times Roman,serif" font-size="14.00">destroy</text>
<text text-anchor="start" x="20.544" y="-108.551" font-family="Times Roman,serif" font-size="14.00">failure</text>
<text text-anchor="start" x="20.544" y="-90.5512" font-family="Times Roman,serif" font-size="14.00">new</text>
<polyline fill="none" stroke="black" points="12.544,-81.1512 156.544,-81.1512 "/>
<polyline fill="none" stroke="black" points="12.544,-57.1512 156.544,-57.1512 "/>
<text text-anchor="start" x="20.544" y="-40.5512" font-family="Times Roman,serif" font-size="14.00">_layout</text>
</g>
<!-- AppointmentsController -->
<g id="node5" class="node"><title>AppointmentsController</title>
<polyline fill="none" stroke="black" points="49.1356,-496.17 207.136,-496.17 "/>
<path fill="none" stroke="black" d="M207.136,-496.17C213.136,-496.17 219.136,-502.17 219.136,-508.17"/>
<polyline fill="none" stroke="black" points="219.136,-508.17 219.136,-730.17 "/>
<path fill="none" stroke="black" d="M219.136,-730.17C219.136,-736.17 213.136,-742.17 207.136,-742.17"/>
<polyline fill="none" stroke="black" points="207.136,-742.17 49.1356,-742.17 "/>
<path fill="none" stroke="black" d="M49.1356,-742.17C43.1356,-742.17 37.1356,-736.17 37.1356,-730.17"/>
<polyline fill="none" stroke="black" points="37.1356,-730.17 37.1356,-508.17 "/>
<path fill="none" stroke="black" d="M37.1356,-508.17C37.1356,-502.17 43.1356,-496.17 49.1356,-496.17"/>
<text text-anchor="middle" x="128.136" y="-725.57" font-family="Times Roman,serif" font-size="14.00">AppointmentsController</text>
<polyline fill="none" stroke="black" points="37.1356,-716.17 219.136,-716.17 "/>
<text text-anchor="start" x="45.1356" y="-699.57" font-family="Times Roman,serif" font-size="14.00">create</text>
<text text-anchor="start" x="45.1356" y="-681.57" font-family="Times Roman,serif" font-size="14.00">destroy</text>
<text text-anchor="start" x="45.1356" y="-663.57" font-family="Times Roman,serif" font-size="14.00">edit</text>
<text text-anchor="start" x="45.1356" y="-645.57" font-family="Times Roman,serif" font-size="14.00">index</text>
<text text-anchor="start" x="45.1356" y="-627.57" font-family="Times Roman,serif" font-size="14.00">new</text>
<text text-anchor="start" x="45.1356" y="-609.57" font-family="Times Roman,serif" font-size="14.00">past</text>
<text text-anchor="start" x="45.1356" y="-591.57" font-family="Times Roman,serif" font-size="14.00">show</text>
<text text-anchor="start" x="45.1356" y="-573.57" font-family="Times Roman,serif" font-size="14.00">update</text>
<text text-anchor="start" x="45.1356" y="-555.57" font-family="Times Roman,serif" font-size="14.00">user_check</text>
<polyline fill="none" stroke="black" points="37.1356,-546.17 219.136,-546.17 "/>
<polyline fill="none" stroke="black" points="37.1356,-522.17 219.136,-522.17 "/>
<text text-anchor="start" x="45.1356" y="-505.57" font-family="Times Roman,serif" font-size="14.00">_layout</text>
</g>
<!-- AdminsController -->
<g id="node6" class="node"><title>AdminsController</title>
<polyline fill="none" stroke="black" points="365.591,-264.507 517.591,-264.507 "/>
<path fill="none" stroke="black" d="M517.591,-264.507C523.591,-264.507 529.591,-270.507 529.591,-276.507"/>
<polyline fill="none" stroke="black" points="529.591,-276.507 529.591,-372.507 "/>
<path fill="none" stroke="black" d="M529.591,-372.507C529.591,-378.507 523.591,-384.507 517.591,-384.507"/>
<polyline fill="none" stroke="black" points="517.591,-384.507 365.591,-384.507 "/>
<path fill="none" stroke="black" d="M365.591,-384.507C359.591,-384.507 353.591,-378.507 353.591,-372.507"/>
<polyline fill="none" stroke="black" points="353.591,-372.507 353.591,-276.507 "/>
<path fill="none" stroke="black" d="M353.591,-276.507C353.591,-270.507 359.591,-264.507 365.591,-264.507"/>
<text text-anchor="middle" x="441.591" y="-367.907" font-family="Times Roman,serif" font-size="14.00">AdminsController</text>
<polyline fill="none" stroke="black" points="353.591,-358.507 529.591,-358.507 "/>
<text text-anchor="start" x="361.591" y="-341.907" font-family="Times Roman,serif" font-size="14.00">index</text>
<text text-anchor="start" x="361.591" y="-323.907" font-family="Times Roman,serif" font-size="14.00">user_and_admin_check</text>
<polyline fill="none" stroke="black" points="353.591,-314.507 529.591,-314.507 "/>
<polyline fill="none" stroke="black" points="353.591,-290.507 529.591,-290.507 "/>
<text text-anchor="start" x="361.591" y="-273.907" font-family="Times Roman,serif" font-size="14.00">_layout</text>
</g>
<!-- AdminsController&#45;&gt;IdentitiesController -->
<g id="edge2" class="edge"><title>AdminsController&#45;&gt;IdentitiesController</title>
<path fill="none" stroke="black" d="M405.667,-264.379C385.632,-230.846 360.594,-188.939 339.758,-154.065"/>
</g>
<!-- SchoolsController -->
<g id="node9" class="node"><title>SchoolsController</title>
<polyline fill="none" stroke="black" points="446.249,-1.5 559.249,-1.5 "/>
<path fill="none" stroke="black" d="M559.249,-1.5C565.249,-1.5 571.249,-7.5 571.249,-13.5"/>
<polyline fill="none" stroke="black" points="571.249,-13.5 571.249,-199.5 "/>
<path fill="none" stroke="black" d="M571.249,-199.5C571.249,-205.5 565.249,-211.5 559.249,-211.5"/>
<polyline fill="none" stroke="black" points="559.249,-211.5 446.249,-211.5 "/>
<path fill="none" stroke="black" d="M446.249,-211.5C440.249,-211.5 434.249,-205.5 434.249,-199.5"/>
<polyline fill="none" stroke="black" points="434.249,-199.5 434.249,-13.5 "/>
<path fill="none" stroke="black" d="M434.249,-13.5C434.249,-7.5 440.249,-1.5 446.249,-1.5"/>
<text text-anchor="middle" x="502.749" y="-194.9" font-family="Times Roman,serif" font-size="14.00">SchoolsController</text>
<polyline fill="none" stroke="black" points="434.249,-185.5 571.249,-185.5 "/>
<text text-anchor="start" x="442.249" y="-168.9" font-family="Times Roman,serif" font-size="14.00">create</text>
<text text-anchor="start" x="442.249" y="-150.9" font-family="Times Roman,serif" font-size="14.00">destroy</text>
<text text-anchor="start" x="442.249" y="-132.9" font-family="Times Roman,serif" font-size="14.00">edit</text>
<text text-anchor="start" x="442.249" y="-114.9" font-family="Times Roman,serif" font-size="14.00">index</text>
<text text-anchor="start" x="442.249" y="-96.9" font-family="Times Roman,serif" font-size="14.00">new</text>
<text text-anchor="start" x="442.249" y="-78.9" font-family="Times Roman,serif" font-size="14.00">show</text>
<text text-anchor="start" x="442.249" y="-60.9" font-family="Times Roman,serif" font-size="14.00">update</text>
<polyline fill="none" stroke="black" points="434.249,-51.5 571.249,-51.5 "/>
<polyline fill="none" stroke="black" points="434.249,-27.5 571.249,-27.5 "/>
<text text-anchor="start" x="442.249" y="-10.9" font-family="Times Roman,serif" font-size="14.00">_layout</text>
</g>
<!-- AdminsController&#45;&gt;SchoolsController -->
<g id="edge14" class="edge"><title>AdminsController&#45;&gt;SchoolsController</title>
<path fill="none" stroke="black" d="M458.465,-264.358C463.061,-247.974 468.178,-229.733 473.255,-211.635"/>
</g>
<!-- ApplicationController -->
<g id="node7" class="node"><title>ApplicationController</title>
<polyline fill="none" stroke="black" points="186.001,-343.957 323.001,-343.957 "/>
<path fill="none" stroke="black" d="M323.001,-343.957C329.001,-343.957 335.001,-349.957 335.001,-355.957"/>
<polyline fill="none" stroke="black" points="335.001,-355.957 335.001,-467.957 "/>
<path fill="none" stroke="black" d="M335.001,-467.957C335.001,-473.957 329.001,-479.957 323.001,-479.957"/>
<polyline fill="none" stroke="black" points="323.001,-479.957 186.001,-479.957 "/>
<path fill="none" stroke="black" d="M186.001,-479.957C180.001,-479.957 174.001,-473.957 174.001,-467.957"/>
<polyline fill="none" stroke="black" points="174.001,-467.957 174.001,-355.957 "/>
<path fill="none" stroke="black" d="M174.001,-355.957C174.001,-349.957 180.001,-343.957 186.001,-343.957"/>
<text text-anchor="middle" x="254.501" y="-463.357" font-family="Times Roman,serif" font-size="14.00">ApplicationController</text>
<polyline fill="none" stroke="black" points="174.001,-453.957 335.001,-453.957 "/>
<polyline fill="none" stroke="black" points="174.001,-429.957 335.001,-429.957 "/>
<polyline fill="none" stroke="black" points="174.001,-405.957 335.001,-405.957 "/>
<text text-anchor="start" x="182.001" y="-389.357" font-family="Times Roman,serif" font-size="14.00">_layout</text>
<text text-anchor="start" x="182.001" y="-371.357" font-family="Times Roman,serif" font-size="14.00">admin_exists</text>
<text text-anchor="start" x="182.001" y="-353.357" font-family="Times Roman,serif" font-size="14.00">current_user</text>
</g>
<!-- ApplicationController&#45;&gt;UsersController -->
<g id="edge4" class="edge"><title>ApplicationController&#45;&gt;UsersController</title>
<path fill="none" stroke="black" d="M331.558,-480.135C351.701,-497.956 373.156,-516.939 392.413,-533.977"/>
</g>
<!-- ApplicationController&#45;&gt;SessionsController -->
<g id="edge6" class="edge"><title>ApplicationController&#45;&gt;SessionsController</title>
<path fill="none" stroke="black" d="M216.148,-343.624C190.105,-297.225 155.601,-235.75 128.456,-187.388"/>
</g>
<!-- ApplicationController&#45;&gt;AppointmentsController -->
<g id="edge8" class="edge"><title>ApplicationController&#45;&gt;AppointmentsController</title>
<path fill="none" stroke="black" d="M212.949,-480.093C209.784,-485.284 206.537,-490.609 203.244,-496.008"/>
</g>
<!-- ApplicationController&#45;&gt;AdminsController -->
<g id="edge10" class="edge"><title>ApplicationController&#45;&gt;AdminsController</title>
<path fill="none" stroke="black" d="M335.202,-374.236C341.235,-371.416 347.34,-368.562 353.415,-365.723"/>
</g>
<!-- LoginController -->
<g id="node8" class="node"><title>LoginController</title>
<polyline fill="none" stroke="black" points="13,-318.426 112,-318.426 "/>
<path fill="none" stroke="black" d="M112,-318.426C118,-318.426 124,-324.426 124,-330.426"/>
<polyline fill="none" stroke="black" points="124,-330.426 124,-408.426 "/>
<path fill="none" stroke="black" d="M124,-408.426C124,-414.426 118,-420.426 112,-420.426"/>
<polyline fill="none" stroke="black" points="112,-420.426 13,-420.426 "/>
<path fill="none" stroke="black" d="M13,-420.426C7,-420.426 1,-414.426 1,-408.426"/>
<polyline fill="none" stroke="black" points="1,-408.426 1,-330.426 "/>
<path fill="none" stroke="black" d="M1,-330.426C1,-324.426 7,-318.426 13,-318.426"/>
<text text-anchor="middle" x="62.5" y="-403.826" font-family="Times Roman,serif" font-size="14.00">LoginController</text>
<polyline fill="none" stroke="black" points="1,-394.426 124,-394.426 "/>
<text text-anchor="start" x="9" y="-377.826" font-family="Times Roman,serif" font-size="14.00">index</text>
<polyline fill="none" stroke="black" points="1,-368.426 124,-368.426 "/>
<polyline fill="none" stroke="black" points="1,-344.426 124,-344.426 "/>
<text text-anchor="start" x="9" y="-327.826" font-family="Times Roman,serif" font-size="14.00">_layout</text>
</g>
<!-- ApplicationController&#45;&gt;LoginController -->
<g id="edge12" class="edge"><title>ApplicationController&#45;&gt;LoginController</title>
<path fill="none" stroke="black" d="M173.91,-394.105C157.285,-390.422 140.027,-386.599 124.201,-383.094"/>
</g>
</g>
</svg>
