<?xml version="1.0" encoding="UTF-8" standalone="no"?>
<!DOCTYPE svg PUBLIC "-//W3C//DTD SVG 1.1//EN"
 "http://www.w3.org/Graphics/SVG/1.1/DTD/svg11.dtd">
<!-- Generated by graphviz version 2.26.3 (20100126.1600)
 -->
<!-- Title: models_diagram Pages: 1 -->
<svg width="696pt" height="324pt"
 viewBox="0.00 0.00 696.00 324.00" xmlns="http://www.w3.org/2000/svg" xmlns:xlink="http://www.w3.org/1999/xlink">
<g id="graph1" class="graph" transform="scale(1 1) rotate(0) translate(4 320)">
<title>models_diagram</title>
<polygon fill="white" stroke="white" points="-4,5 -4,-320 693,-320 693,5 -4,5"/>
<!-- _diagram_info -->
<g id="node1" class="node"><title>_diagram_info</title>
<text text-anchor="start" x="185" y="-299.8" font-family="Times Roman,serif" font-size="13.00">Models diagram</text>
<text text-anchor="start" x="185" y="-282.8" font-family="Times Roman,serif" font-size="13.00">Date: Dec 08 2013 &#45; 17:57</text>
<text text-anchor="start" x="185" y="-265.8" font-family="Times Roman,serif" font-size="13.00">Migration version: 20131125002834</text>
<text text-anchor="start" x="185" y="-248.8" font-family="Times Roman,serif" font-size="13.00">Generated by RailRoady 1.1.1</text>
<text text-anchor="start" x="185" y="-231.8" font-family="Times Roman,serif" font-size="13.00">http://railroady.prestonlee.com</text>
</g>
<!-- School -->
<g id="node2" class="node"><title>School</title>
<ellipse fill="none" stroke="black" cx="549" cy="-167" rx="43.8406" ry="18.3848"/>
<text text-anchor="middle" x="549" y="-163.4" font-family="Times Roman,serif" font-size="14.00">School</text>
</g>
<!-- User -->
<g id="node3" class="node"><title>User</title>
<ellipse fill="none" stroke="black" cx="482" cy="-93" rx="33.9411" ry="18.3848"/>
<text text-anchor="middle" x="482" y="-89.4" font-family="Times Roman,serif" font-size="14.00">User</text>
</g>
<!-- School&#45;&gt;User -->
<g id="edge2" class="edge"><title>School&#45;&gt;User</title>
<path fill="none" stroke="#4df44f" d="M526.382,-142.019C519.139,-134.019 511.134,-125.178 503.94,-117.232"/>
<polygon fill="#4df44f" stroke="#4df44f" points="526.41,-142.05 529.786,-152.483 529.766,-145.757 533.122,-149.463 533.122,-149.463 533.122,-149.463 529.766,-145.757 536.458,-146.443 526.41,-142.05 526.41,-142.05"/>
<polygon fill="#4df44f" stroke="#4df44f" points="503.786,-117.062 500.41,-106.629 500.43,-113.355 497.074,-109.649 497.074,-109.649 497.074,-109.649 500.43,-113.355 493.738,-112.669 503.786,-117.062 503.786,-117.062"/>
</g>
<!-- Appointment -->
<g id="node4" class="node"><title>Appointment</title>
<ellipse fill="none" stroke="black" cx="613" cy="-93" rx="74.9533" ry="18.3848"/>
<text text-anchor="middle" x="613" y="-89.4" font-family="Times Roman,serif" font-size="14.00">Appointment</text>
</g>
<!-- School&#45;&gt;Appointment -->
<g id="edge4" class="edge"><title>School&#45;&gt;Appointment</title>
<path fill="none" stroke="#f6913e" d="M569.553,-143.235C576.294,-135.441 583.815,-126.745 590.68,-118.807"/>
<ellipse fill="none" stroke="#f6913e" cx="566.784" cy="-146.438" rx="4.00002" ry="4.00002"/>
<polygon fill="#f6913e" stroke="#f6913e" points="590.732,-118.748 600.677,-114.128 594.003,-114.966 597.273,-111.184 597.273,-111.184 597.273,-111.184 594.003,-114.966 593.87,-108.24 590.732,-118.748 590.732,-118.748"/>
</g>
<!-- Identity -->
<g id="node5" class="node"><title>Identity</title>
<ellipse fill="none" stroke="black" cx="348" cy="-19" rx="50.2046" ry="18.3848"/>
<text text-anchor="middle" x="348" y="-15.4" font-family="Times Roman,serif" font-size="14.00">Identity</text>
</g>
<!-- User&#45;&gt;Identity -->
<g id="edge8" class="edge"><title>User&#45;&gt;Identity</title>
<path fill="none" stroke="#5fdbd2" d="M450.979,-75.8689C430.701,-64.6706 404.172,-50.0203 383.119,-38.3941"/>
<ellipse fill="none" stroke="#5fdbd2" cx="454.542" cy="-77.8366" rx="4.00002" ry="4.00002"/>
<ellipse fill="#5fdbd2" stroke="#5fdbd2" cx="379.422" cy="-36.3522" rx="4.00002" ry="4.00002"/>
</g>
<!-- ActiveRecord::Base -->
<g id="node8" class="node"><title>ActiveRecord::Base</title>
<ellipse fill="none" stroke="black" cx="549" cy="-269" rx="104.151" ry="18.3848"/>
<text text-anchor="middle" x="549" y="-265.4" font-family="Times Roman,serif" font-size="14.00">ActiveRecord::Base</text>
</g>
<!-- ActiveRecord::Base&#45;&gt;School -->
<g id="edge6" class="edge"><title>ActiveRecord::Base&#45;&gt;School</title>
<path fill="none" stroke="black" d="M549,-250.292C549,-231.888 549,-203.953 549,-185.59"/>
</g>
<!-- ActiveRecord::Base&#45;&gt;User -->
<g id="edge10" class="edge"><title>ActiveRecord::Base&#45;&gt;User</title>
<path fill="none" stroke="black" d="M533.897,-250.444C521.655,-234.381 505.007,-210.012 496,-186 486.768,-161.387 483.611,-130.949 482.539,-111.748"/>
</g>
<!-- ActiveRecord::Base&#45;&gt;Appointment -->
<g id="edge12" class="edge"><title>ActiveRecord::Base&#45;&gt;Appointment</title>
<path fill="none" stroke="black" d="M564.299,-250.516C576.661,-234.496 593.375,-210.151 602,-186 610.804,-161.349 612.885,-130.921 613.217,-111.732"/>
</g>
<!-- OmniAuth::Identity::Models::ActiveRecord -->
<g id="node13" class="node"><title>OmniAuth::Identity::Models::ActiveRecord</title>
<ellipse fill="none" stroke="black" cx="215" cy="-93" rx="214.96" ry="18.3848"/>
<text text-anchor="middle" x="215" y="-89.4" font-family="Times Roman,serif" font-size="14.00">OmniAuth::Identity::Models::ActiveRecord</text>
</g>
<!-- OmniAuth::Identity::Models::ActiveRecord&#45;&gt;Identity -->
<g id="edge14" class="edge"><title>OmniAuth::Identity::Models::ActiveRecord&#45;&gt;Identity</title>
<path fill="none" stroke="black" d="M247.876,-74.7079C270.031,-62.3815 298.941,-46.296 319.997,-34.5805"/>
</g>
</g>
</svg>
