<?xml version="1.0" encoding="UTF-8" standalone="no"?>
<!DOCTYPE svg PUBLIC "-//W3C//DTD SVG 1.1//EN"
 "http://www.w3.org/Graphics/SVG/1.1/DTD/svg11.dtd">
<!-- Generated by graphviz version 2.26.3 (20100126.1600)
 -->
<!-- Title: models_diagram Pages: 1 -->
<svg width="811pt" height="804pt"
 viewBox="0.00 0.00 811.00 804.00" xmlns="http://www.w3.org/2000/svg" xmlns:xlink="http://www.w3.org/1999/xlink">
<g id="graph1" class="graph" transform="scale(1 1) rotate(0) translate(4 800)">
<title>models_diagram</title>
<polygon fill="white" stroke="white" points="-4,5 -4,-800 808,-800 808,5 -4,5"/>
<!-- _diagram_info -->
<g id="node1" class="node"><title>_diagram_info</title>
<text text-anchor="start" x="266" y="-779.8" font-family="Times Roman,serif" font-size="13.00">Models diagram</text>
<text text-anchor="start" x="266" y="-762.8" font-family="Times Roman,serif" font-size="13.00">Date: Dec 08 2013 &#45; 17:57</text>
<text text-anchor="start" x="266" y="-745.8" font-family="Times Roman,serif" font-size="13.00">Migration version: 20131125002834</text>
<text text-anchor="start" x="266" y="-728.8" font-family="Times Roman,serif" font-size="13.00">Generated by RailRoady 1.1.1</text>
<text text-anchor="start" x="266" y="-711.8" font-family="Times Roman,serif" font-size="13.00">http://railroady.prestonlee.com</text>
</g>
<!-- School -->
<g id="node2" class="node"><title>School</title>
<polyline fill="none" stroke="black" points="559.5,-451 700.5,-451 "/>
<path fill="none" stroke="black" d="M700.5,-451C706.5,-451 712.5,-457 712.5,-463"/>
<polyline fill="none" stroke="black" points="712.5,-463 712.5,-653 "/>
<path fill="none" stroke="black" d="M712.5,-653C712.5,-659 706.5,-665 700.5,-665"/>
<polyline fill="none" stroke="black" points="700.5,-665 559.5,-665 "/>
<path fill="none" stroke="black" d="M559.5,-665C553.5,-665 547.5,-659 547.5,-653"/>
<polyline fill="none" stroke="black" points="547.5,-653 547.5,-463 "/>
<path fill="none" stroke="black" d="M547.5,-463C547.5,-457 553.5,-451 559.5,-451"/>
<text text-anchor="middle" x="630" y="-648.4" font-family="Times Roman,serif" font-size="14.00">School</text>
<polyline fill="none" stroke="black" points="547.5,-639 712.5,-639 "/>
<text text-anchor="start" x="555.5" y="-622.4" font-family="Times Roman,serif" font-size="14.00">id :integer</text>
<text text-anchor="start" x="555.5" y="-604.4" font-family="Times Roman,serif" font-size="14.00">name :string</text>
<text text-anchor="start" x="555.5" y="-586.4" font-family="Times Roman,serif" font-size="14.00">created_at :datetime</text>
<text text-anchor="start" x="555.5" y="-568.4" font-family="Times Roman,serif" font-size="14.00">updated_at :datetime</text>
<text text-anchor="start" x="555.5" y="-550.4" font-family="Times Roman,serif" font-size="14.00">country :string</text>
<text text-anchor="start" x="555.5" y="-532.4" font-family="Times Roman,serif" font-size="14.00">state :string</text>
<text text-anchor="start" x="555.5" y="-514.4" font-family="Times Roman,serif" font-size="14.00">county :string</text>
<text text-anchor="start" x="555.5" y="-496.4" font-family="Times Roman,serif" font-size="14.00">city :string</text>
<text text-anchor="start" x="555.5" y="-478.4" font-family="Times Roman,serif" font-size="14.00">address :string</text>
<text text-anchor="start" x="555.5" y="-460.4" font-family="Times Roman,serif" font-size="14.00">zipcode :integer</text>
</g>
<!-- User -->
<g id="node3" class="node"><title>User</title>
<polyline fill="none" stroke="black" points="459.5,-199 600.5,-199 "/>
<path fill="none" stroke="black" d="M600.5,-199C606.5,-199 612.5,-205 612.5,-211"/>
<polyline fill="none" stroke="black" points="612.5,-211 612.5,-383 "/>
<path fill="none" stroke="black" d="M612.5,-383C612.5,-389 606.5,-395 600.5,-395"/>
<polyline fill="none" stroke="black" points="600.5,-395 459.5,-395 "/>
<path fill="none" stroke="black" d="M459.5,-395C453.5,-395 447.5,-389 447.5,-383"/>
<polyline fill="none" stroke="black" points="447.5,-383 447.5,-211 "/>
<path fill="none" stroke="black" d="M447.5,-211C447.5,-205 453.5,-199 459.5,-199"/>
<text text-anchor="middle" x="530" y="-378.4" font-family="Times Roman,serif" font-size="14.00">User</text>
<polyline fill="none" stroke="black" points="447.5,-369 612.5,-369 "/>
<text text-anchor="start" x="455.5" y="-352.4" font-family="Times Roman,serif" font-size="14.00">id :integer</text>
<text text-anchor="start" x="455.5" y="-334.4" font-family="Times Roman,serif" font-size="14.00">name :string</text>
<text text-anchor="start" x="455.5" y="-316.4" font-family="Times Roman,serif" font-size="14.00">uid :string</text>
<text text-anchor="start" x="455.5" y="-298.4" font-family="Times Roman,serif" font-size="14.00">provider :string</text>
<text text-anchor="start" x="455.5" y="-280.4" font-family="Times Roman,serif" font-size="14.00">email :string</text>
<text text-anchor="start" x="455.5" y="-262.4" font-family="Times Roman,serif" font-size="14.00">created_at :datetime</text>
<text text-anchor="start" x="455.5" y="-244.4" font-family="Times Roman,serif" font-size="14.00">updated_at :datetime</text>
<text text-anchor="start" x="455.5" y="-226.4" font-family="Times Roman,serif" font-size="14.00">school :string</text>
<text text-anchor="start" x="455.5" y="-208.4" font-family="Times Roman,serif" font-size="14.00">rank :string</text>
</g>
<!-- School&#45;&gt;User -->
<g id="edge2" class="edge"><title>School&#45;&gt;User</title>
<path fill="none" stroke="#6844da" d="M585.236,-441.166C580.581,-429.016 575.865,-416.708 571.252,-404.666"/>
<polygon fill="#6844da" stroke="#6844da" points="585.315,-441.373 584.691,-452.321 587.104,-446.042 588.893,-450.711 588.893,-450.711 588.893,-450.711 587.104,-446.042 593.095,-449.101 585.315,-441.373 585.315,-441.373"/>
<polygon fill="#6844da" stroke="#6844da" points="571.155,-404.413 571.779,-393.465 569.366,-399.744 567.577,-395.075 567.577,-395.075 567.577,-395.075 569.366,-399.744 563.375,-396.685 571.155,-404.413 571.155,-404.413"/>
</g>
<!-- Appointment -->
<g id="node4" class="node"><title>Appointment</title>
<polyline fill="none" stroke="black" points="650.5,-181 791.5,-181 "/>
<path fill="none" stroke="black" d="M791.5,-181C797.5,-181 803.5,-187 803.5,-193"/>
<polyline fill="none" stroke="black" points="803.5,-193 803.5,-401 "/>
<path fill="none" stroke="black" d="M803.5,-401C803.5,-407 797.5,-413 791.5,-413"/>
<polyline fill="none" stroke="black" points="791.5,-413 650.5,-413 "/>
<path fill="none" stroke="black" d="M650.5,-413C644.5,-413 638.5,-407 638.5,-401"/>
<polyline fill="none" stroke="black" points="638.5,-401 638.5,-193 "/>
<path fill="none" stroke="black" d="M638.5,-193C638.5,-187 644.5,-181 650.5,-181"/>
<text text-anchor="middle" x="721" y="-396.4" font-family="Times Roman,serif" font-size="14.00">Appointment</text>
<polyline fill="none" stroke="black" points="638.5,-387 803.5,-387 "/>
<text text-anchor="start" x="646.5" y="-370.4" font-family="Times Roman,serif" font-size="14.00">id :integer</text>
<text text-anchor="start" x="646.5" y="-352.4" font-family="Times Roman,serif" font-size="14.00">client :string</text>
<text text-anchor="start" x="646.5" y="-334.4" font-family="Times Roman,serif" font-size="14.00">intern :string</text>
<text text-anchor="start" x="646.5" y="-316.4" font-family="Times Roman,serif" font-size="14.00">start :datetime</text>
<text text-anchor="start" x="646.5" y="-298.4" font-family="Times Roman,serif" font-size="14.00">end :datetime</text>
<text text-anchor="start" x="646.5" y="-280.4" font-family="Times Roman,serif" font-size="14.00">created_at :datetime</text>
<text text-anchor="start" x="646.5" y="-262.4" font-family="Times Roman,serif" font-size="14.00">updated_at :datetime</text>
<text text-anchor="start" x="646.5" y="-244.4" font-family="Times Roman,serif" font-size="14.00">school :string</text>
<text text-anchor="start" x="646.5" y="-226.4" font-family="Times Roman,serif" font-size="14.00">room :string</text>
<text text-anchor="start" x="646.5" y="-208.4" font-family="Times Roman,serif" font-size="14.00">school_id :integer</text>
<text text-anchor="start" x="646.5" y="-190.4" font-family="Times Roman,serif" font-size="14.00">user_id :integer</text>
</g>
<!-- School&#45;&gt;Appointment -->
<g id="edge4" class="edge"><title>School&#45;&gt;Appointment</title>
<path fill="none" stroke="#298aaa" d="M670.047,-443.14C672.375,-436.463 674.722,-429.731 677.064,-423.015"/>
<ellipse fill="none" stroke="#298aaa" cx="668.724" cy="-446.934" rx="4.00001" ry="4.00001"/>
<polygon fill="#298aaa" stroke="#298aaa" points="677.195,-422.637 684.737,-414.676 678.842,-417.916 680.488,-413.194 680.488,-413.194 680.488,-413.194 678.842,-417.916 676.239,-411.713 677.195,-422.637 677.195,-422.637"/>
</g>
<!-- Identity -->
<g id="node5" class="node"><title>Identity</title>
<polyline fill="none" stroke="black" points="294.5,-1 449.5,-1 "/>
<path fill="none" stroke="black" d="M449.5,-1C455.5,-1 461.5,-7 461.5,-13"/>
<polyline fill="none" stroke="black" points="461.5,-13 461.5,-131 "/>
<path fill="none" stroke="black" d="M461.5,-131C461.5,-137 455.5,-143 449.5,-143"/>
<polyline fill="none" stroke="black" points="449.5,-143 294.5,-143 "/>
<path fill="none" stroke="black" d="M294.5,-143C288.5,-143 282.5,-137 282.5,-131"/>
<polyline fill="none" stroke="black" points="282.5,-131 282.5,-13 "/>
<path fill="none" stroke="black" d="M282.5,-13C282.5,-7 288.5,-1 294.5,-1"/>
<text text-anchor="middle" x="372" y="-126.4" font-family="Times Roman,serif" font-size="14.00">Identity</text>
<polyline fill="none" stroke="black" points="282.5,-117 461.5,-117 "/>
<text text-anchor="start" x="290.5" y="-100.4" font-family="Times Roman,serif" font-size="14.00">id :integer</text>
<text text-anchor="start" x="290.5" y="-82.4" font-family="Times Roman,serif" font-size="14.00">name :string</text>
<text text-anchor="start" x="290.5" y="-64.4" font-family="Times Roman,serif" font-size="14.00">email :string</text>
<text text-anchor="start" x="290.5" y="-46.4" font-family="Times Roman,serif" font-size="14.00">password_digest :string</text>
<text text-anchor="start" x="290.5" y="-28.4" font-family="Times Roman,serif" font-size="14.00">created_at :datetime</text>
<text text-anchor="start" x="290.5" y="-10.4" font-family="Times Roman,serif" font-size="14.00">updated_at :datetime</text>
</g>
<!-- User&#45;&gt;Identity -->
<g id="edge8" class="edge"><title>User&#45;&gt;Identity</title>
<path fill="none" stroke="#ef8cf7" d="M456.526,-192.369C446.505,-178.099 436.366,-163.66 426.756,-149.975"/>
<ellipse fill="none" stroke="#ef8cf7" cx="458.86" cy="-195.693" rx="4.00002" ry="4.00002"/>
<ellipse fill="#ef8cf7" stroke="#ef8cf7" cx="424.382" cy="-146.595" rx="4.00002" ry="4.00002"/>
</g>
<!-- ActiveRecord::Base -->
<g id="node8" class="node"><title>ActiveRecord::Base</title>
<ellipse fill="none" stroke="black" cx="630" cy="-749" rx="104.151" ry="18.3848"/>
<text text-anchor="middle" x="630" y="-745.4" font-family="Times Roman,serif" font-size="14.00">ActiveRecord::Base</text>
</g>
<!-- ActiveRecord::Base&#45;&gt;School -->
<g id="edge6" class="edge"><title>ActiveRecord::Base&#45;&gt;School</title>
<path fill="none" stroke="black" d="M630,-730.338C630,-714.475 630,-690.307 630,-665.045"/>
</g>
<!-- ActiveRecord::Base&#45;&gt;User -->
<g id="edge10" class="edge"><title>ActiveRecord::Base&#45;&gt;User</title>
<path fill="none" stroke="black" d="M599.878,-731.024C578.595,-716.459 551.688,-693.821 539,-666 500.113,-580.729 502.72,-472.456 512.103,-395.292"/>
</g>
<!-- ActiveRecord::Base&#45;&gt;Appointment -->
<g id="edge12" class="edge"><title>ActiveRecord::Base&#45;&gt;Appointment</title>
<path fill="none" stroke="black" d="M660.321,-731.113C681.705,-716.594 708.653,-693.974 721,-666 755.923,-586.88 754.013,-488.591 744.406,-413.353"/>
</g>
<!-- OmniAuth::Identity::Models::ActiveRecord -->
<g id="node13" class="node"><title>OmniAuth::Identity::Models::ActiveRecord</title>
<ellipse fill="none" stroke="black" cx="215" cy="-297" rx="214.96" ry="18.3848"/>
<text text-anchor="middle" x="215" y="-293.4" font-family="Times Roman,serif" font-size="14.00">OmniAuth::Identity::Models::ActiveRecord</text>
</g>
<!-- OmniAuth::Identity::Models::ActiveRecord&#45;&gt;Identity -->
<g id="edge14" class="edge"><title>OmniAuth::Identity::Models::ActiveRecord&#45;&gt;Identity</title>
<path fill="none" stroke="black" d="M228.116,-278.204C248.641,-248.789 289.409,-190.363 322.325,-143.191"/>
</g>
</g>
</svg>
